PathFileType	4	(X/Y/Z)	Patient5_TMGait_0pt45_1_right_04.trc.trc
DataRate	CameraRate	NumFrames	NumMarkers	Units	OrigDataRate	OrigDataStartFrame	OrigNumFrames
55.776892430279	55.776892430279	4	32	mm	55.776892430279	124	       141
Frame#	Time	R.ASIS			L.ASIS			Chest			R.Shoulder			Neck			L.Shoulder			L.Elbow			L.Wrist			R.Elbow			R.Wrist			L.Thigh.Superior			L.Thigh.Lateral			L.Thigh.Inferior			L.Patella			L.Shank.Superior			L.Shank.Lateral			L.Shank.Inferior			L.Heel			L.Midfoot.Lateral			L.Midfoot.Superior			L.Toe			R.Thigh.Superior			R.Thigh.Lateral			R.Thigh.Inferior			R.Patella			R.Shank.Superior			R.Shank.Lateral			R.Shank.Inferior			R.Heel			R.Midfoot.Lateral			R.Midfoot.Superior			R.Toe			
		X1	Y1	Z1	X2	Y2	Z2	X3	Y3	Z3	X4	Y4	Z4	X5	Y5	Z5	X6	Y6	Z6	X7	Y7	Z7	X8	Y8	Z8	X9	Y9	Z9	X10	Y10	Z10	X11	Y11	Z11	X12	Y12	Z12	X13	Y13	Z13	X14	Y14	Z14	X15	Y15	Z15	X16	Y16	Z16	X17	Y17	Z17	X18	Y18	Z18	X19	Y19	Z19	X20	Y20	Z20	X21	Y21	Z21	X22	Y22	Z22	X23	Y23	Z23	X24	Y24	Z24	X25	Y25	Z25	X26	Y26	Z26	X27	Y27	Z27	X28	Y28	Z28	X29	Y29	Z29	X30	Y30	Z30	X31	Y31	Z31	X32	Y32	Z32	

124	8.315214285714	941.703646048879	975.399215225658	534.717593274448	920.499681429853	951.280237710603	292.764295159460	977.314591880121	1428.545987785767	434.075549318950	873.148994792587	1485.179261064315	601.666465647927	850.137824477149	1547.655559485725	419.451220982071	915.973795782268	1497.220294260273	238.419287477626	853.804094821343	1180.162196884780	97.713123237258	979.410267906520	921.908174601582	88.869450795701	776.782319477162	1167.758854317442	736.547001764163	982.164345260002	969.385206915089	683.958747843869	893.699535940327	723.097928342874	291.816855443148	797.584531909166	669.694642284391	260.917709871068	857.878586316448	596.317484535093	314.929466387675	816.959528335366	479.861481780232	321.592025102954	749.165143879189	392.772508946168	350.432620230446	656.364307822156	345.720051850331	282.585074351896	687.969928397730	282.556757022496	366.276001197681	503.427910414493	71.691692807696	379.105511493716	588.178330895119	38.476095184651	318.374179572429	690.023000111382	91.356051753015	355.672964643925	790.787725336479	44.214608863531	362.473892350341	996.071907819313	753.148609604671	557.808597063121	933.536552731494	662.193915934056	617.820380495782	1020.054579912933	628.243548448620	540.329073475504	1044.757086917300	533.471053556859	573.641781572299	1018.600803369764	426.595178618339	536.629394935680	953.158081068802	348.096899425880	614.478122335317	1019.098826762121	286.077129444732	534.620023659704	926.949290010436	56.250462468194	497.538235268873	1007.304984150545	23.549554039132	567.873582165521	1107.882316322406	98.114100372685	555.505989817873	1214.380936949911	61.073781601378	550.637141931261	
125	8.333142857143	944.754726854007	972.076847316244	537.636524869225	922.387799501025	949.809864268642	295.981959899044	979.470793334460	1426.944139587753	437.672020242753	877.483921477778	1482.780453749891	606.793401689376	851.678794998432	1545.842349755719	424.931281636545	914.359312537809	1495.683145120831	242.728412294538	847.295759336768	1179.973169433800	101.423937317667	969.478838165680	920.365899322366	87.085258890066	784.914829501087	1164.008602463977	741.581818115567	989.755106905820	965.991187910189	685.629015568975	895.696889000484	721.732609412569	293.905451353320	799.484235671988	668.376850372198	262.962478331711	860.222392101286	594.802215541649	316.293665985091	818.486453170864	476.637567662262	322.297759426635	748.701218985102	390.724110025677	351.026283988741	654.849885807037	345.863670942067	283.030682053151	684.866364612907	282.002923128120	366.764926903119	495.989949058128	74.228987456071	379.036494427445	580.522710832358	39.925028883331	318.379212755199	682.938027042243	91.593136282146	355.461061643429	782.826850919675	44.200724057962	362.367931413475	996.415929830909	748.834978180363	559.557831685386	932.215483046722	658.416622367159	618.478338448893	1018.643237761768	623.982410952945	540.845735772889	1041.844299781349	528.604581035872	572.792502501665	1014.943836646588	422.611515545004	534.893011506961	949.449653022437	344.122442081998	612.643314612037	1014.477184452040	282.140933113322	531.993161325768	920.357251924124	53.389032303112	494.166815777329	999.926957934015	22.096600477443	565.732037351285	1101.726337615324	94.225745622802	550.517455782100	1207.747447821075	55.070621636592	547.084097078372	
126	8.351071428571	947.368789996440	969.646404958201	540.938158684245	924.351731585790	948.942755899081	299.559207407018	981.933557482919	1425.911488786995	441.503134203110	882.046037638993	1481.109339925784	611.965470641990	853.765623837679	1544.783136991027	430.407396793848	913.387424171226	1494.792480543453	247.209742255773	840.879145505483	1180.400904177631	105.885063982454	959.332081847525	919.513109172478	85.776375732636	793.619079771877	1160.847724951247	746.448241237747	997.672042646169	962.953148820660	687.189619600869	898.533129083939	721.013310780220	296.338011800372	802.610031814036	667.380888071105	264.924796032188	863.876086811874	593.805944713552	317.755056976382	821.722298291833	473.440960335727	322.664367460422	749.605889793484	388.872048735154	351.236187633134	654.698644919571	346.436673196140	283.076742998730	682.871543870457	281.971446655657	367.014158283194	489.074093410278	78.113917021262	378.778331991511	573.168716301712	42.000972457668	318.315996801001	676.493349693724	91.856956785910	355.071696231764	774.966756298206	44.168441356759	362.284859959594	997.362531455248	746.317928904474	562.088537668150	932.156556033771	656.166144293042	619.758067983733	1018.726265661953	621.583383857301	542.185066105311	1040.649625819641	525.465882290937	572.749483989295	1012.519217251712	420.039079712908	534.006341997800	946.919530086133	341.820818401320	611.894441027683	1010.441923768550	279.633690930970	530.179637744780	913.279684331242	51.841763445824	491.804321078777	992.220131665790	21.832254346477	564.385540833013	1095.212556079983	91.618761370665	546.450800373778	1200.717429716583	50.439887447493	544.304492249612	
127	8.369000000000	949.583491757081	968.205510371220	544.626393083950	926.284562327362	948.819092503620	303.442554281925	984.652765375934	1425.569431781028	445.544970897965	886.752198678729	1480.334032763290	617.124446270292	856.353372277383	1544.595863562261	435.820233063497	913.165589414788	1494.713065548521	251.835418830215	834.643583075874	1181.673242167648	111.071731047441	948.981857232955	919.525187084485	85.078735794030	802.758700485411	1158.559860685037	751.195502386025	1005.872117841303	960.679498983150	688.568267287805	902.155010435395	721.087951955664	298.876500086910	806.929390709273	666.851609550927	266.585937096930	868.895218619933	593.463888079440	318.992090277007	826.846411198496	470.437056782666	322.278897017635	752.100764414599	387.342924439194	350.755916145808	656.074422662551	347.584781702269	282.529514048263	682.237698682181	282.628549443663	366.801258972843	482.947436785554	83.759300351055	378.244052699665	566.217812424032	44.919009412129	318.137614885969	670.831179372876	92.140069969636	354.437181850609	767.184077007168	44.103055394313	362.236534087985	998.948641461591	745.396730507031	565.463940671091	933.119670998537	655.239086535465	621.642864467297	1020.150145284960	620.749538185126	544.443943988085	1040.853636126971	523.789989871313	573.681574790208	1011.102395896551	418.652425786612	534.098633859006	945.230317712125	340.950871821197	612.254237932876	1006.870789733977	278.344306106144	529.334581962625	905.816872666488	51.339149557415	490.459978814076	984.343115811213	22.285013824614	563.723677988908	1088.363221346795	90.095851879268	543.585229751490	1193.373562819361	47.234065190506	542.398370123866	
